<svg width="114" height="114" viewBox="0 0 114 114" fill="none" xmlns="http://www.w3.org/2000/svg">
<g clip-path="url(#clip0_1136_3158)">
<path d="M20.2948 99.3439C8.28393 88.983 0.681152 73.6518 0.681152 56.5449C0.681152 25.3408 25.977 0.0449219 57.1812 0.0449219C88.3853 0.0449219 113.681 25.3408 113.681 56.5449C113.681 73.6518 106.078 88.9832 94.0673 99.3441L20.2948 99.3439Z" fill="#A3D4FF"/>
<path d="M76.5502 21.9062L35.3396 47.6197L47.5617 59.8418H43.9069L80.461 96.396L94.0672 99.3437C105.504 89.4781 112.944 75.1059 113.629 58.985L76.5502 21.9062Z" fill="#65B1FC"/>
<path d="M38.8699 49.2702C41.4115 49.2702 43.4718 47.2098 43.4718 44.6683C43.4718 42.1267 41.4115 40.0664 38.8699 40.0664C36.3284 40.0664 34.2681 42.1267 34.2681 44.6683C34.2681 47.2098 36.3284 49.2702 38.8699 49.2702Z" fill="#E09380"/>
<path d="M75.4925 49.2702C78.034 49.2702 80.0944 47.2098 80.0944 44.6683C80.0944 42.1267 78.034 40.0664 75.4925 40.0664C72.951 40.0664 70.8906 42.1267 70.8906 44.6683C70.8906 47.2098 72.951 49.2702 75.4925 49.2702Z" fill="#D47F6C"/>
<path d="M44.2353 72.6318L33.4769 73.7629C30.8219 74.1339 28.5007 75.2165 26.7636 76.7466C26.7605 76.7453 26.7572 76.7442 26.7541 76.7429C24.7176 78.5341 23.4888 80.9437 23.4888 83.5597V92.9065C33.2054 98.0899 44.7699 101.097 57.1811 101.097C69.5923 101.097 81.1565 98.0899 90.8734 92.9065V83.5597C90.8734 80.9437 89.6446 78.5341 87.6081 76.7429C87.6048 76.7442 87.6017 76.7453 87.5986 76.7466C85.8615 75.2165 83.5406 74.1339 80.8853 73.7629L70.1269 72.6318L57.1811 77.2403L44.2353 72.6318Z" fill="white"/>
<path d="M57.1812 77.2404V101.098C69.5811 101.093 81.1643 98.0867 90.8735 92.9075V83.5607C90.8735 80.9447 89.6446 78.5351 87.6082 76.7439C87.6049 76.7452 87.6018 76.7463 87.5987 76.7476C85.8615 75.2175 83.5406 74.1349 80.8853 73.7639L70.1269 72.6328" fill="#E9EDF5"/>
<path d="M44.2354 72.6318C47.3186 76.3502 51.9732 78.7185 57.1811 78.7185C62.3891 78.7185 67.0437 76.3502 70.1269 72.6318L69.4509 72.5179C67.0205 72.1085 65.241 70.0041 65.241 67.5395V56.3174H49.1215V67.5397C49.1215 70.0043 47.342 72.1087 44.9116 72.5181L44.2354 72.6318Z" fill="#E09380"/>
<path d="M70.1269 72.6318L69.4509 72.5179C67.0205 72.1085 65.241 70.0041 65.241 67.5395V56.3174H57.1812V78.7183C62.3792 78.7108 67.0486 76.3444 70.1269 72.6318Z" fill="#D47F6C"/>
<path d="M57.1812 65.3222C47.3335 65.3222 38.5535 57.3391 38.5535 47.4913V37.5769C38.5535 27.7291 47.3337 19.7461 57.1812 19.7461C67.029 19.7461 75.809 27.7291 75.809 37.5769V47.4913C75.809 57.3391 67.029 65.3222 57.1812 65.3222Z" fill="#FAA68E"/>
<path d="M57.1812 19.7461V65.3222C67.0289 65.3222 75.8089 57.3391 75.8089 47.4913V37.5769C75.8089 27.7291 67.0289 19.7461 57.1812 19.7461Z" fill="#E09380"/>
<path d="M20.2949 99.3443C30.1928 107.882 43.0841 113.045 57.1813 113.045C71.2784 113.045 84.1697 107.882 94.0676 99.3443V81.4775H20.2949V99.3443Z" fill="#414952"/>
<path d="M57.1812 113.045C71.2783 113.045 84.1696 107.882 94.0675 99.3443V81.4775H57.1812V113.045Z" fill="#23272B"/>
<path d="M57.1813 107.33C60.7852 107.33 63.7068 104.409 63.7068 100.805C63.7068 97.2009 60.7852 94.2793 57.1813 94.2793C53.5773 94.2793 50.6558 97.2009 50.6558 100.805C50.6558 104.409 53.5773 107.33 57.1813 107.33Z" fill="#7E8596"/>
<path d="M57.1812 94.2793C60.7852 94.2793 63.7067 97.201 63.7067 100.805C63.7067 104.409 60.785 107.33 57.1812 107.33V94.2793Z" fill="#707789"/>
<path d="M79.0225 30.3164C79.0225 21.7392 72.0695 14.7861 63.4923 14.7861H53.0515C43.2697 14.7861 35.3398 22.716 35.3398 32.4978V41.4312C35.3398 43.2195 36.7894 44.6691 38.5778 44.6691V39.15H46.5324C52.0197 39.15 63.5283 39.5585 68.8666 31.24C69.4851 33.958 71.7005 38.5484 74.7552 38.5484H75.7846V44.6691C77.5729 44.6691 79.0225 43.2193 79.0225 41.4312V30.3164Z" fill="#414952"/>
<path d="M63.4922 14.7852H57.1812V38.4256C61.5879 37.5374 66.0854 35.573 68.8667 31.239C69.4851 33.957 71.7005 38.5474 74.7553 38.5474H75.7847V44.6679C77.573 44.6679 79.0226 43.2183 79.0226 41.43V30.3154C79.0226 21.7384 72.0693 14.7852 63.4922 14.7852Z" fill="#333940"/>
</g>
<defs>
<clipPath id="clip0_1136_3158">
<rect width="113" height="113" fill="white" transform="translate(0.681152 0.0449219)"/>
</clipPath>
</defs>
</svg>
