<svg width="30" height="30" viewBox="0 0 30 30" fill="none" xmlns="http://www.w3.org/2000/svg">
<g clip-path="url(#clip0_207_38)">
<path d="M25.775 5.27446C25.6298 5.15699 25.4601 5.07355 25.2784 5.03029C25.0967 4.98703 24.9076 4.98503 24.725 5.02446L15 7.21196L5.27501 4.99946C5.08954 4.95757 4.89696 4.95855 4.71193 5.00231C4.52689 5.04608 4.35428 5.13147 4.20722 5.25201C4.06017 5.37255 3.94255 5.52504 3.86332 5.69789C3.78409 5.87073 3.74534 6.05938 3.75001 6.24946V21.4995C3.74295 21.7884 3.83624 22.0709 4.01401 22.2988C4.19178 22.5267 4.44303 22.686 4.72501 22.7495L14.725 24.9995H15.275L25.275 22.7495C25.557 22.686 25.8082 22.5267 25.986 22.2988C26.1638 22.0709 26.2571 21.7884 26.25 21.4995V6.24946C26.2491 6.0617 26.206 5.87655 26.1238 5.70776C26.0415 5.53897 25.9223 5.39087 25.775 5.27446ZM6.25001 7.81196L13.75 9.49946V22.187L6.25001 20.4995V7.81196ZM23.75 20.4995L16.25 22.187V9.49946L23.75 7.81196V20.4995Z" fill="#8C8C8C"/>
</g>
<defs>
<clipPath id="clip0_207_38">
<rect width="30" height="30" fill="white"/>
</clipPath>
</defs>
</svg>
