<svg width="30" height="30" viewBox="0 0 30 30" fill="none" xmlns="http://www.w3.org/2000/svg">
<g clip-path="url(#clip0_206_453)">
<path d="M23.75 6.25H6.25C5.25544 6.25 4.30161 6.64509 3.59835 7.34835C2.89509 8.05161 2.5 9.00544 2.5 10V20C2.5 20.9946 2.89509 21.9484 3.59835 22.6517C4.30161 23.3549 5.25544 23.75 6.25 23.75H23.75C24.7446 23.75 25.6984 23.3549 26.4017 22.6517C27.1049 21.9484 27.5 20.9946 27.5 20V10C27.5 9.00544 27.1049 8.05161 26.4017 7.34835C25.6984 6.64509 24.7446 6.25 23.75 6.25ZM5 10C5 9.66848 5.1317 9.35054 5.36612 9.11612C5.60054 8.8817 5.91848 8.75 6.25 8.75H23.75C24.0815 8.75 24.3995 8.8817 24.6339 9.11612C24.8683 9.35054 25 9.66848 25 10V11.25H5V10ZM25 20C25 20.3315 24.8683 20.6495 24.6339 20.8839C24.3995 21.1183 24.0815 21.25 23.75 21.25H6.25C5.91848 21.25 5.60054 21.1183 5.36612 20.8839C5.1317 20.6495 5 20.3315 5 20V13.75H25V20Z" fill="#8C8C8C"/>
<path d="M8.75 18.75H13.75C14.0815 18.75 14.3995 18.6183 14.6339 18.3839C14.8683 18.1495 15 17.8315 15 17.5C15 17.1685 14.8683 16.8505 14.6339 16.6161C14.3995 16.3817 14.0815 16.25 13.75 16.25H8.75C8.41848 16.25 8.10054 16.3817 7.86612 16.6161C7.6317 16.8505 7.5 17.1685 7.5 17.5C7.5 17.8315 7.6317 18.1495 7.86612 18.3839C8.10054 18.6183 8.41848 18.75 8.75 18.75ZM18.75 18.75H21.25C21.5815 18.75 21.8995 18.6183 22.1339 18.3839C22.3683 18.1495 22.5 17.8315 22.5 17.5C22.5 17.1685 22.3683 16.8505 22.1339 16.6161C21.8995 16.3817 21.5815 16.25 21.25 16.25H18.75C18.4185 16.25 18.1005 16.3817 17.8661 16.6161C17.6317 16.8505 17.5 17.1685 17.5 17.5C17.5 17.8315 17.6317 18.1495 17.8661 18.3839C18.1005 18.6183 18.4185 18.75 18.75 18.75Z" fill="#8C8C8C"/>
</g>
<defs>
<clipPath id="clip0_206_453">
<rect width="30" height="30" fill="white"/>
</clipPath>
</defs>
</svg>
