<svg width="36" height="36" viewBox="0 0 36 36" fill="none" xmlns="http://www.w3.org/2000/svg">
<g clip-path="url(#clip0_206_377)">
<path d="M29.1 11.0093L24.99 6.8993C24.4536 6.39544 23.7507 6.10634 23.015 6.08698C22.2793 6.06762 21.5622 6.31935 21 6.7943L7.49999 20.2943C7.01514 20.7832 6.71324 21.4241 6.64499 22.1093L5.99999 28.3643C5.97978 28.584 6.00829 28.8055 6.08348 29.0129C6.15867 29.2203 6.27869 29.4086 6.43499 29.5643C6.57515 29.7033 6.74137 29.8133 6.92413 29.888C7.10688 29.9626 7.30258 30.0004 7.49999 29.9993H7.63499L13.89 29.4293C14.5752 29.361 15.216 29.0592 15.705 28.5743L29.205 15.0743C29.729 14.5208 30.0121 13.7821 29.9925 13.0201C29.9728 12.2581 29.6518 11.5351 29.1 11.0093ZM13.62 26.4293L9.11999 26.8493L9.52499 22.3493L18 13.9793L22.05 18.0293L13.62 26.4293ZM24 16.0193L19.98 11.9993L22.905 8.9993L27 13.0943L24 16.0193Z" fill="black"/>
</g>
<defs>
<clipPath id="clip0_206_377">
<rect width="36" height="36" fill="white"/>
</clipPath>
</defs>
</svg>
