<svg width="30" height="30" viewBox="0 0 30 30" fill="none" xmlns="http://www.w3.org/2000/svg">
<g clip-path="url(#clip0_207_32)">
<path d="M25 13.75C24.6685 13.75 24.3505 13.8817 24.1161 14.1161C23.8817 14.3505 23.75 14.6685 23.75 15V22.5C23.75 22.8315 23.6183 23.1495 23.3839 23.3839C23.1495 23.6183 22.8315 23.75 22.5 23.75H7.5C7.16848 23.75 6.85054 23.6183 6.61612 23.3839C6.3817 23.1495 6.25 22.8315 6.25 22.5V7.5C6.25 7.16848 6.3817 6.85054 6.61612 6.61612C6.85054 6.3817 7.16848 6.25 7.5 6.25H15C15.3315 6.25 15.6495 6.1183 15.8839 5.88388C16.1183 5.64946 16.25 5.33152 16.25 5C16.25 4.66848 16.1183 4.35054 15.8839 4.11612C15.6495 3.8817 15.3315 3.75 15 3.75H7.5C6.50544 3.75 5.55161 4.14509 4.84835 4.84835C4.14509 5.55161 3.75 6.50544 3.75 7.5V22.5C3.75 23.4946 4.14509 24.4484 4.84835 25.1517C5.55161 25.8549 6.50544 26.25 7.5 26.25H22.5C23.4946 26.25 24.4484 25.8549 25.1517 25.1517C25.8549 24.4484 26.25 23.4946 26.25 22.5V15C26.25 14.6685 26.1183 14.3505 25.8839 14.1161C25.6495 13.8817 25.3315 13.75 25 13.75Z" fill="#8C8C8C"/>
<path d="M20 6.25H21.975L14.1125 14.1C13.9954 14.2162 13.9024 14.3545 13.8389 14.5068C13.7755 14.6591 13.7428 14.8225 13.7428 14.9875C13.7428 15.1525 13.7755 15.3159 13.8389 15.4682C13.9024 15.6205 13.9954 15.7588 14.1125 15.875C14.2287 15.9922 14.367 16.0852 14.5193 16.1486C14.6716 16.2121 14.835 16.2447 15 16.2447C15.1651 16.2447 15.3284 16.2121 15.4808 16.1486C15.6331 16.0852 15.7713 15.9922 15.8875 15.875L23.75 8.025V10C23.75 10.3315 23.8817 10.6495 24.1162 10.8839C24.3506 11.1183 24.6685 11.25 25 11.25C25.3316 11.25 25.6495 11.1183 25.8839 10.8839C26.1184 10.6495 26.25 10.3315 26.25 10V5C26.25 4.66848 26.1184 4.35054 25.8839 4.11612C25.6495 3.8817 25.3316 3.75 25 3.75H20C19.6685 3.75 19.3506 3.8817 19.1162 4.11612C18.8817 4.35054 18.75 4.66848 18.75 5C18.75 5.33152 18.8817 5.64946 19.1162 5.88388C19.3506 6.1183 19.6685 6.25 20 6.25Z" fill="#8C8C8C"/>
</g>
<defs>
<clipPath id="clip0_207_32">
<rect width="30" height="30" fill="white"/>
</clipPath>
</defs>
</svg>
