<svg width="30" height="30" viewBox="0 0 30 30" fill="none" xmlns="http://www.w3.org/2000/svg">
<g clip-path="url(#clip0_206_417)">
<path d="M26.2501 14.1884C26.2357 13.956 26.1567 13.7322 26.022 13.5423C25.8873 13.3523 25.7022 13.2038 25.4876 13.1134L22.8001 11.9634L25.6251 10.3384C25.8253 10.2232 25.9898 10.0548 26.1001 9.85178C26.2104 9.64877 26.2623 9.41916 26.2501 9.18843C26.2357 8.95601 26.1567 8.73221 26.022 8.54228C25.8873 8.35234 25.7022 8.20381 25.4876 8.11343L15.4876 3.85093C15.3333 3.78561 15.1675 3.75195 15.0001 3.75195C14.8326 3.75195 14.6668 3.78561 14.5126 3.85093L4.51256 8.11343C4.29794 8.20381 4.11284 8.35234 3.97812 8.54228C3.8434 8.73221 3.76441 8.95601 3.75006 9.18843C3.73778 9.41916 3.78968 9.64877 3.90001 9.85178C4.01034 10.0548 4.17478 10.2232 4.37506 10.3384L7.20006 11.9634L4.51256 13.1134C4.29794 13.2038 4.11284 13.3523 3.97812 13.5423C3.8434 13.7322 3.76441 13.956 3.75006 14.1884C3.73778 14.4192 3.78968 14.6488 3.90001 14.8518C4.01034 15.0548 4.17478 15.2232 4.37506 15.3384L7.20006 16.9634L4.51256 18.1134C4.29794 18.2038 4.11284 18.3523 3.97812 18.5423C3.8434 18.7322 3.76441 18.956 3.75006 19.1884C3.73778 19.4192 3.78968 19.6488 3.90001 19.8518C4.01034 20.0548 4.17478 20.2232 4.37506 20.3384L14.3751 26.0884C14.5651 26.1981 14.7806 26.2559 15.0001 26.2559C15.2195 26.2559 15.435 26.1981 15.6251 26.0884L25.6251 20.3384C25.8253 20.2232 25.9898 20.0548 26.1001 19.8518C26.2104 19.6488 26.2623 19.4192 26.2501 19.1884C26.2357 18.956 26.1567 18.7322 26.022 18.5423C25.8873 18.3523 25.7022 18.2038 25.4876 18.1134L22.8001 16.9634L25.6251 15.3384C25.8253 15.2232 25.9898 15.0548 26.1001 14.8518C26.2104 14.6488 26.2623 14.4192 26.2501 14.1884ZM15.0001 6.36343L22.2001 9.42593L15.0001 13.5634L7.80006 9.42593L15.0001 6.36343ZM14.3751 16.0884C14.5651 16.1981 14.7806 16.2559 15.0001 16.2559C15.2195 16.2559 15.435 16.1981 15.6251 16.0884L20.0876 13.5884L22.2001 14.4884L15.0001 18.5634L7.80006 14.4259L9.91256 13.5259L14.3751 16.0884ZM22.2001 19.4259L15.0001 23.5634L7.80006 19.4259L9.91256 18.5259L14.3751 21.0884C14.5651 21.1981 14.7806 21.2559 15.0001 21.2559C15.2195 21.2559 15.435 21.1981 15.6251 21.0884L20.0876 18.5259L22.2001 19.4259Z" fill="#8C8C8C"/>
</g>
<defs>
<clipPath id="clip0_206_417">
<rect width="30" height="30" fill="white"/>
</clipPath>
</defs>
</svg>
