<svg width="52" height="52" viewBox="0 0 52 52" fill="none" xmlns="http://www.w3.org/2000/svg">
<g clip-path="url(#clip0_815_806)">
<path d="M39.2438 47.6561C38.8619 47.6576 38.4851 47.5716 38.1452 47.4054L25.9641 41.3188L13.7831 47.4054C13.3876 47.6039 12.9416 47.6925 12.4959 47.6611C12.0502 47.6298 11.6227 47.4797 11.2619 47.228C10.9012 46.9763 10.6216 46.633 10.4551 46.2372C10.2886 45.8414 10.2417 45.4089 10.3199 44.989L12.7083 32.1547L2.86794 23.0362C2.56093 22.7438 2.34313 22.3771 2.23794 21.9755C2.13274 21.5739 2.14411 21.1525 2.27083 20.7566C2.40927 20.3515 2.66391 19.9915 3.00588 19.7175C3.34784 19.4435 3.76342 19.2664 4.20547 19.2065L17.8196 17.3144L23.8145 5.61994C24.0101 5.23452 24.3155 4.90948 24.6957 4.68205C25.0758 4.45461 25.5154 4.33398 25.9641 4.33398C26.4128 4.33398 26.8524 4.45461 27.2326 4.68205C27.6128 4.90948 27.9181 5.23452 28.1137 5.61994L34.1804 17.2916L47.7945 19.1837C48.2365 19.2436 48.6521 19.4207 48.994 19.6947C49.336 19.9687 49.5907 20.3287 49.7291 20.7338C49.8558 21.1297 49.8672 21.5511 49.762 21.9527C49.6568 22.3543 49.439 22.721 49.132 23.0134L39.2916 32.1319L41.6801 44.9662C41.7653 45.3936 41.7207 45.8353 41.5514 46.2392C41.3821 46.6432 41.0952 46.9924 40.7247 47.2458C40.2922 47.5351 39.7714 47.6794 39.2438 47.6561ZM25.9641 36.486C26.347 36.4768 26.7257 36.5632 27.0628 36.7367L36.0672 41.296L34.3475 31.6988C34.2808 31.3323 34.3091 30.9559 34.4298 30.6022C34.5505 30.2486 34.7601 29.9285 35.0402 29.6699L42.2055 22.9906L32.1741 21.5773C31.8062 21.5066 31.461 21.3542 31.1664 21.1324C30.8717 20.9106 30.636 20.6257 30.4783 20.3007L25.9641 11.7521L21.45 20.3007C21.2772 20.6283 21.0241 20.9112 20.7123 21.1255C20.4004 21.3399 20.039 21.4792 19.6587 21.5317L9.62722 22.9451L16.7925 29.6243C17.0726 29.8829 17.2822 30.203 17.4029 30.5566C17.5237 30.9103 17.5519 31.2867 17.4852 31.6532L15.7655 41.1364L24.7699 36.5772C25.1515 36.4418 25.5649 36.4102 25.9641 36.486Z" fill="#F1DC1E"/>
</g>
<defs>
<clipPath id="clip0_815_806">
<rect width="52" height="52" fill="white"/>
</clipPath>
</defs>
</svg>
