<svg width="30" height="30" viewBox="0 0 30 30" fill="none" xmlns="http://www.w3.org/2000/svg">
<g clip-path="url(#clip0_207_26)">
<path d="M8.28752 14.5133L15 9.11327L21.7125 14.7133C21.9341 14.8969 22.2123 14.9984 22.5 15.0008C22.6837 15.0011 22.8651 14.9609 23.0315 14.8831C23.1978 14.8053 23.345 14.6919 23.4625 14.5508C23.5678 14.4245 23.6471 14.2786 23.6959 14.1216C23.7447 13.9646 23.762 13.7995 23.7469 13.6358C23.7318 13.4721 23.6846 13.3129 23.6079 13.1675C23.5312 13.0221 23.4266 12.8932 23.3 12.7883L15.8 6.53827C15.5764 6.35441 15.2958 6.25391 15.0063 6.25391C14.7167 6.25391 14.4362 6.35441 14.2125 6.53827L6.71252 12.5758C6.58411 12.6789 6.47736 12.8064 6.39839 12.951C6.31942 13.0955 6.2698 13.2543 6.25238 13.418C6.23495 13.5818 6.25007 13.7474 6.29686 13.9054C6.34365 14.0633 6.42119 14.2104 6.52502 14.3383C6.62907 14.4658 6.75726 14.5714 6.90225 14.6493C7.04725 14.7271 7.20618 14.7755 7.36993 14.7918C7.53368 14.808 7.69903 14.7918 7.85649 14.744C8.01396 14.6962 8.16043 14.6178 8.28752 14.5133Z" fill="#8C8C8C"/>
<path d="M15.8 15.2883C15.5764 15.1044 15.2958 15.0039 15.0063 15.0039C14.7167 15.0039 14.4362 15.1044 14.2125 15.2883L6.71252 21.3258C6.58411 21.4289 6.47736 21.5564 6.39839 21.701C6.31942 21.8455 6.2698 22.0043 6.25238 22.168C6.23495 22.3318 6.25007 22.4974 6.29686 22.6554C6.34365 22.8133 6.42119 22.9604 6.52502 23.0883C6.62817 23.2167 6.75569 23.3234 6.90023 23.4024C7.04478 23.4814 7.20351 23.531 7.36729 23.5484C7.53108 23.5658 7.69669 23.5507 7.85462 23.5039C8.01254 23.4571 8.15966 23.3796 8.28752 23.2758L15 17.8633L21.7125 23.4633C21.9341 23.6469 22.2123 23.7484 22.5 23.7508C22.6837 23.7511 22.8651 23.7109 23.0315 23.6331C23.1978 23.5553 23.345 23.4419 23.4625 23.3008C23.5678 23.1745 23.6471 23.0286 23.6959 22.8716C23.7447 22.7146 23.762 22.5495 23.7469 22.3858C23.7318 22.2221 23.6846 22.0629 23.6079 21.9175C23.5312 21.7721 23.4266 21.6432 23.3 21.5383L15.8 15.2883Z" fill="#8C8C8C"/>
</g>
<defs>
<clipPath id="clip0_207_26">
<rect width="30" height="30" fill="white"/>
</clipPath>
</defs>
</svg>
