<svg width="30" height="30" viewBox="0 0 30 30" fill="none" xmlns="http://www.w3.org/2000/svg">
<g clip-path="url(#clip0_206_448)">
<path d="M16.25 2.50063C13.2942 2.21677 10.3339 2.99441 7.89924 4.69428C5.46456 6.39415 3.71453 8.90522 2.96254 11.7778C2.21056 14.6504 2.50574 17.6968 3.79522 20.3716C5.0847 23.0464 7.28426 25.1748 9.99999 26.3756C11.5728 27.0868 13.2742 27.4697 15 27.5006C17.7475 27.5009 20.4185 26.5959 22.6 24.9256C22.8633 24.7249 23.0362 24.4278 23.0807 24.0997C23.1252 23.7717 23.0377 23.4393 22.8375 23.1756C22.738 23.0435 22.6132 22.9324 22.4705 22.8488C22.3277 22.7652 22.1698 22.7108 22.0058 22.6887C21.8419 22.6666 21.6752 22.6773 21.5154 22.7201C21.3556 22.7629 21.2059 22.837 21.075 22.9381C19.7786 23.9174 18.2631 24.566 16.6597 24.8279C15.0562 25.0898 13.4131 24.9571 11.8725 24.4412C10.3319 23.9254 8.94016 23.0419 7.81773 21.8672C6.69531 20.6926 5.87599 19.2622 5.43066 17.6997C4.98533 16.1372 4.9274 14.4898 5.26189 12.8999C5.59638 11.31 6.3132 9.82559 7.35035 8.57502C8.3875 7.32444 9.71373 6.3454 11.2143 5.7226C12.7149 5.0998 14.3446 4.852 15.9625 5.00063C18.4734 5.29124 20.7873 6.50268 22.4566 8.40063C24.126 10.2986 25.0322 12.7482 25 15.2756V16.1256C24.9986 16.4128 24.9393 16.6967 24.8257 16.9605C24.7121 17.2242 24.5465 17.4624 24.3388 17.6607C24.1312 17.859 23.8856 18.0135 23.617 18.1149C23.3483 18.2162 23.0619 18.2624 22.775 18.2506C22.2028 18.1878 21.6756 17.9104 21.2998 17.4743C20.9241 17.0382 20.7276 16.4759 20.75 15.9006V10.5006C20.75 10.1691 20.6183 9.85116 20.3839 9.61674C20.1495 9.38232 19.8315 9.25063 19.5 9.25063C19.1948 9.24804 18.8992 9.3572 18.6689 9.55753C18.4387 9.75786 18.2897 10.0355 18.25 10.3381C17.0867 9.2426 15.5479 8.63426 13.95 8.63813C12.864 8.64627 11.7981 8.93227 10.8539 9.46891C9.90967 10.0055 9.11854 10.7749 8.55583 11.7039C7.99311 12.6328 7.67754 13.6903 7.63916 14.7756C7.60079 15.861 7.84088 16.9381 8.33659 17.9045C8.8323 18.8708 9.56711 19.6942 10.4711 20.2961C11.375 20.8981 12.418 21.2587 13.5008 21.3435C14.5835 21.4283 15.6699 21.2346 16.6566 20.7807C17.6433 20.3269 18.4973 19.628 19.1375 18.7506C19.5003 19.3119 19.9836 19.7853 20.5523 20.1365C21.1209 20.4876 21.7607 20.7077 22.425 20.7807C23.0894 20.8538 23.7616 20.7779 24.393 20.5586C25.0243 20.3394 25.5989 19.9822 26.075 19.5131C26.5332 19.0772 26.8963 18.5513 27.1415 17.9683C27.3868 17.3854 27.5088 16.758 27.5 16.1256V15.2756C27.528 12.1343 26.3953 9.09332 24.3191 6.73576C22.243 4.3782 19.3696 2.87008 16.25 2.50063ZM13.975 18.8631C13.2111 18.8631 12.4643 18.6366 11.8291 18.2122C11.1939 17.7878 10.6989 17.1845 10.4065 16.4787C10.1142 15.773 10.0377 14.9963 10.1867 14.2471C10.3357 13.4978 10.7036 12.8096 11.2438 12.2694C11.784 11.7292 12.4722 11.3614 13.2215 11.2123C13.9707 11.0633 14.7473 11.1398 15.4531 11.4321C16.1589 11.7245 16.7621 12.2196 17.1865 12.8547C17.611 13.4899 17.8375 14.2367 17.8375 15.0006C17.8342 16.024 17.4262 17.0045 16.7026 17.7282C15.9789 18.4518 14.9984 18.8598 13.975 18.8631Z" fill="#8C8C8C"/>
</g>
<defs>
<clipPath id="clip0_206_448">
<rect width="30" height="30" fill="white"/>
</clipPath>
</defs>
</svg>
