<svg width="30" height="30" viewBox="0 0 30 30" fill="none" xmlns="http://www.w3.org/2000/svg">
<g clip-path="url(#clip0_206_348)">
<path d="M23.75 25.9375L20.8625 14.6875C21.9301 13.3592 22.5082 11.7041 22.5 10C22.5 8.01088 21.7098 6.10322 20.3033 4.6967C18.8968 3.29018 16.9891 2.5 15 2.5C13.0109 2.5 11.1032 3.29018 9.69669 4.6967C8.29016 6.10322 7.49999 8.01088 7.49999 10C7.49656 11.7173 8.08849 13.3826 9.17499 14.7125L6.24999 25.9375C6.18777 26.1774 6.19828 26.4304 6.28018 26.6643C6.36208 26.8983 6.51168 27.1026 6.70996 27.2513C6.90824 27.4 7.14626 27.4864 7.39376 27.4995C7.64127 27.5127 7.88709 27.4519 8.09999 27.325L14.7625 23.4125L21.8625 27.3375C22.0543 27.4533 22.2761 27.5098 22.5 27.5C22.6941 27.5062 22.8869 27.4671 23.0633 27.3858C23.2396 27.3044 23.3946 27.1831 23.5159 27.0315C23.6372 26.8799 23.7216 26.702 23.7622 26.5121C23.8028 26.3223 23.7986 26.1255 23.75 25.9375ZM15 5C15.9889 5 16.9556 5.29324 17.7778 5.84265C18.6001 6.39206 19.2409 7.17295 19.6194 8.08658C19.9978 9.00021 20.0968 10.0055 19.9039 10.9755C19.711 11.9454 19.2348 12.8363 18.5355 13.5355C17.8363 14.2348 16.9453 14.711 15.9754 14.9039C15.0055 15.0969 14.0002 14.9978 13.0866 14.6194C12.1729 14.241 11.392 13.6001 10.8426 12.7779C10.2932 11.9556 9.99999 10.9889 9.99999 10C9.99999 8.67392 10.5268 7.40215 11.4645 6.46447C12.4021 5.52678 13.6739 5 15 5ZM15.3875 20.8875C15.1975 20.7778 14.9819 20.72 14.7625 20.72C14.5431 20.72 14.3275 20.7778 14.1375 20.8875L9.44999 23.6375L11.25 16.5125C12.3758 17.1595 13.6515 17.5001 14.95 17.5001C16.2485 17.5001 17.5242 17.1595 18.65 16.5125L20.5625 23.75L15.3875 20.8875Z" fill="#8C8C8C"/>
</g>
<defs>
<clipPath id="clip0_206_348">
<rect width="30" height="30" fill="white"/>
</clipPath>
</defs>
</svg>
