<svg width="33" height="33" viewBox="0 0 33 33" fill="none" xmlns="http://www.w3.org/2000/svg">
<g clip-path="url(#clip0_205_162)">
<path d="M26.4 9.62583H25.8638C26.0286 9.18573 26.1169 8.7207 26.125 8.25083C26.0962 7.13239 25.6259 6.0708 24.817 5.29792C24.008 4.52504 22.9261 4.10367 21.8075 4.12583C20.7083 4.14957 19.6356 4.46842 18.7019 5.04899C17.7681 5.62956 17.0076 6.45049 16.5 7.42583C15.9924 6.45049 15.232 5.62956 14.2982 5.04899C13.3645 4.46842 12.2918 4.14957 11.1925 4.12583C10.0739 4.10367 8.99202 4.52504 8.18307 5.29792C7.37412 6.0708 6.90388 7.13239 6.87504 8.25083C6.88316 8.7207 6.97152 9.18573 7.13629 9.62583H6.60004C6.23821 9.66019 5.88679 9.76593 5.56609 9.93693C5.24538 10.1079 4.96175 10.3408 4.7316 10.6221C4.50145 10.9034 4.32935 11.2275 4.22523 11.5758C4.12112 11.924 4.08706 12.2894 4.12504 12.6508V17.6008C4.0608 18.2667 4.23198 18.9339 4.60881 19.4866C4.98563 20.0393 5.54426 20.4424 6.18754 20.6258V26.6346C6.22998 27.2583 6.51347 27.8409 6.97799 28.2593C7.44251 28.6776 8.05159 28.8987 8.67629 28.8758H24.3238C24.9575 28.8982 25.5744 28.6696 26.0404 28.2396C26.5065 27.8096 26.7839 27.213 26.8125 26.5796V20.6258C27.4558 20.4424 28.0144 20.0393 28.3913 19.4866C28.7681 18.9339 28.9393 18.2667 28.875 17.6008V12.6508C28.913 12.2894 28.879 11.924 28.7748 11.5758C28.6707 11.2275 28.4986 10.9034 28.2685 10.6221C28.0383 10.3408 27.7547 10.1079 27.434 9.93693C27.1133 9.76593 26.7619 9.66019 26.4 9.62583ZM26.125 12.6508V17.6008C26.1415 17.6918 26.1415 17.7849 26.125 17.8758H17.875V12.3758H26.125C26.1415 12.4668 26.1415 12.5599 26.125 12.6508ZM21.8075 6.87583C22.1971 6.85313 22.5799 6.98465 22.8732 7.24195C23.1665 7.49926 23.3468 7.86167 23.375 8.25083C23.3468 8.63999 23.1665 9.00241 22.8732 9.25971C22.5799 9.51701 22.1971 9.64853 21.8075 9.62583H18.425C18.6656 8.89127 19.1124 8.24142 19.7122 7.75381C20.312 7.26621 21.0393 6.96143 21.8075 6.87583ZM9.62504 8.25083C9.65328 7.86167 9.83355 7.49926 10.1269 7.24195C10.4202 6.98465 10.803 6.85313 11.1925 6.87583C11.9583 6.96392 12.6827 7.26983 13.2798 7.75727C13.8769 8.24471 14.3217 8.89321 14.5613 9.62583H11.1925C10.803 9.64853 10.4202 9.51701 10.1269 9.25971C9.83355 9.00241 9.65328 8.63999 9.62504 8.25083ZM6.87504 12.6508C6.85853 12.5599 6.85853 12.4668 6.87504 12.3758H15.125V17.8758H6.87504C6.85853 17.7849 6.85853 17.6918 6.87504 17.6008V12.6508ZM8.93754 20.6258H15.125V26.1258H8.93754V20.6258ZM17.875 26.1258V20.6258H24.0625V26.1258H17.875Z" fill="#8C8C8C"/>
</g>
<defs>
<clipPath id="clip0_205_162">
<rect width="33" height="33" fill="white"/>
</clipPath>
</defs>
</svg>
