<svg width="26" height="27" viewBox="0 0 26 27" fill="none" xmlns="http://www.w3.org/2000/svg">
<path d="M26 41.5503H24.1429C24.1429 40.1297 24.0123 38.7628 23.7511 37.4494C23.49 36.1361 23.1127 34.9098 22.6194 33.7707C22.1261 32.6316 21.5458 31.5863 20.8783 30.6347C20.2109 29.6832 19.4613 28.8792 18.6295 28.2225C17.7976 27.5658 16.9077 27.0498 15.9598 26.6746C15.0119 26.2994 14.0253 26.1117 13 26.1117C11.9747 26.1117 10.9881 26.2927 10.0402 26.6545C9.09226 27.0163 8.20722 27.539 7.38504 28.2225C6.56287 28.906 5.80841 29.71 5.12165 30.6347C4.4349 31.5595 3.85454 32.5981 3.38058 33.7506C2.90662 34.9031 2.53423 36.1361 2.26339 37.4494C1.99256 38.7628 1.85714 40.1297 1.85714 41.5503H0C0 39.607 0.203125 37.7576 0.609375 36.002C1.01562 34.2464 1.60082 32.6383 2.36496 31.1775C3.12909 29.7167 4.03348 28.4235 5.07812 27.2978C6.12277 26.172 7.30283 25.2674 8.6183 24.584C7.4189 23.6861 6.40327 22.4799 5.57143 20.9656H4.64286C4.25595 20.9656 3.89323 20.8651 3.55469 20.664C3.21615 20.463 2.92113 20.1883 2.66964 19.8398C2.41815 19.4914 2.21987 19.0827 2.07478 18.6136C1.92969 18.1445 1.85714 17.642 1.85714 17.1059V11.9598C1.85714 11.4505 1.92485 10.968 2.06027 10.5124C2.19568 10.0567 2.37946 9.6547 2.61161 9.30626C2.84375 8.95782 3.12426 8.67639 3.45312 8.46196C3.78199 8.24754 4.12537 8.12693 4.48326 8.10012C4.86049 6.92079 5.33929 5.85537 5.91964 4.90387C6.5 3.95236 7.16257 3.14157 7.90737 2.47149C8.65216 1.80142 9.45498 1.28546 10.3158 0.92362C11.1767 0.56178 12.0714 0.380859 13 0.380859C13.9286 0.380859 14.8233 0.56178 15.6842 0.92362C16.545 1.28546 17.343 1.80142 18.0781 2.47149C18.8132 3.14157 19.4758 3.95236 20.0658 4.90387C20.6559 5.85537 21.1395 6.92079 21.5167 8.10012C21.8843 8.12693 22.2277 8.24754 22.5469 8.46196C22.8661 8.67639 23.1417 8.95782 23.3739 9.30626C23.606 9.6547 23.7946 10.0567 23.9397 10.5124C24.0848 10.968 24.1525 11.4505 24.1429 11.9598V17.1059C24.1429 17.642 24.0703 18.1445 23.9252 18.6136C23.7801 19.0827 23.5818 19.4914 23.3304 19.8398C23.0789 20.1883 22.7839 20.463 22.4453 20.664C22.1068 20.8651 21.744 20.9656 21.3571 20.9656C21.067 20.9656 20.7913 20.9053 20.5301 20.7846C20.1142 21.5753 19.6451 22.2923 19.1228 22.9356C18.6004 23.5789 18.0201 24.1283 17.3817 24.584C18.6778 25.2674 19.853 26.1653 20.9074 27.2777C21.9617 28.39 22.8709 29.6832 23.635 31.1574C24.3992 32.6316 24.9795 34.2464 25.3761 36.002C25.7727 37.7576 25.9807 39.607 26 41.5503ZM22.2857 11.9598C22.2857 11.6113 22.1938 11.3098 22.01 11.0552C21.8263 10.8005 21.6086 10.6732 21.3571 10.6732C21.1057 10.6732 20.888 10.8005 20.7042 11.0552C20.5205 11.3098 20.4286 11.6113 20.4286 11.9598V17.1059C20.4286 17.4544 20.5205 17.7559 20.7042 18.0105C20.888 18.2652 21.1057 18.3925 21.3571 18.3925C21.6086 18.3925 21.8263 18.2652 22.01 18.0105C22.1938 17.7559 22.2857 17.4544 22.2857 17.1059V11.9598ZM3.71429 17.1059C3.71429 17.4544 3.80618 17.7559 3.98996 18.0105C4.17374 18.2652 4.39137 18.3925 4.64286 18.3925H5.57143V11.9598C5.57143 11.6113 5.47954 11.3098 5.29576 11.0552C5.11198 10.8005 4.89435 10.6732 4.64286 10.6732C4.39137 10.6732 4.17374 10.8005 3.98996 11.0552C3.80618 11.3098 3.71429 11.6113 3.71429 11.9598V17.1059ZM8.08147 20.9656C8.75856 21.7965 9.51786 22.433 10.3594 22.8753C11.2009 23.3175 12.0811 23.5387 13 23.5387C13.5997 23.5387 14.1849 23.4448 14.7556 23.2572C15.3263 23.0696 15.8679 22.7882 16.3806 22.4129C16.8932 22.0377 17.3769 21.5887 17.8315 21.0661C18.2861 20.5434 18.6875 19.9336 19.0357 19.2368C18.881 18.9285 18.7649 18.5935 18.6875 18.2317C18.6101 17.8698 18.5714 17.4946 18.5714 17.1059V11.9598C18.5714 11.3433 18.6682 10.7603 18.8616 10.2109C19.0551 9.6614 19.3404 9.20575 19.7176 8.84391C19.4081 7.94601 19.0212 7.13522 18.5569 6.41153C18.0926 5.68785 17.5655 5.07138 16.9754 4.56213C16.3854 4.05287 15.7567 3.65753 15.0893 3.37609C14.4219 3.09466 13.7254 2.95395 13 2.95395C12.2842 2.95395 11.5878 3.08796 10.9107 3.35599C10.2336 3.62402 9.60491 4.01937 9.02455 4.54203C8.4442 5.06468 7.92188 5.68785 7.45759 6.41153C6.9933 7.13522 6.60156 7.94601 6.28237 8.84391C6.64993 9.20575 6.93043 9.6614 7.12388 10.2109C7.31734 10.7603 7.4189 11.3433 7.42857 11.9598V18.3925H9.28571C9.28571 18.0306 9.33408 17.6956 9.4308 17.3874C9.52753 17.0791 9.65811 16.8111 9.82254 16.5833C9.98698 16.3554 10.1853 16.1678 10.4174 16.0204C10.6496 15.873 10.8914 15.806 11.1429 15.8194C11.404 15.8194 11.6458 15.8864 11.8683 16.0204C12.0908 16.1544 12.2842 16.3353 12.4487 16.5632C12.6131 16.791 12.7485 17.0657 12.8549 17.3874C12.9613 17.709 13.0097 18.044 13 18.3925C13 18.7543 12.9516 19.0894 12.8549 19.3976C12.7582 19.7058 12.6276 19.9739 12.4632 20.2017C12.2987 20.4295 12.1004 20.6171 11.8683 20.7645C11.6362 20.912 11.3943 20.979 11.1429 20.9656H8.08147Z" fill="white"/>
</svg>
