<svg width="30" height="30" viewBox="0 0 30 30" fill="none" xmlns="http://www.w3.org/2000/svg">
<g clip-path="url(#clip0_206_193)">
<path d="M21.75 27.5001C16.6466 27.4935 11.7541 25.4633 8.1455 21.8546C4.53686 18.246 2.50661 13.3535 2.5 8.25014C2.5 6.72515 3.1058 5.26261 4.18414 4.18428C5.26247 3.10594 6.72501 2.50014 8.25 2.50014C8.57293 2.49768 8.89531 2.52699 9.2125 2.58764C9.51914 2.63302 9.82058 2.70838 10.1125 2.81264C10.3178 2.88468 10.5008 3.00906 10.6433 3.17348C10.7858 3.33791 10.8829 3.53668 10.925 3.75014L12.6375 11.2501C12.6837 11.4537 12.6781 11.6656 12.6213 11.8665C12.5646 12.0674 12.4584 12.2508 12.3125 12.4001C12.15 12.5751 12.1375 12.5876 10.6 13.3876C11.8312 16.0887 13.9915 18.2578 16.6875 19.5001C17.5 17.9501 17.5125 17.9376 17.6875 17.7751C17.8368 17.6293 18.0203 17.5231 18.2211 17.4663C18.422 17.4095 18.6339 17.404 18.8375 17.4501L26.3375 19.1626C26.5441 19.2106 26.7352 19.3103 26.8926 19.4525C27.0501 19.5946 27.1687 19.7745 27.2375 19.9751C27.343 20.2718 27.4225 20.5772 27.475 20.8876C27.5253 21.2018 27.5504 21.5195 27.55 21.8376C27.527 23.3561 26.9041 24.8038 25.8175 25.8647C24.7308 26.9256 23.2686 27.5135 21.75 27.5001ZM8.25 5.00014C7.38906 5.00344 6.56432 5.3469 5.95554 5.95568C5.34676 6.56446 5.00329 7.3892 5 8.25014C5.00331 12.6915 6.7691 16.95 9.90962 20.0905C13.0501 23.231 17.3086 24.9968 21.75 25.0001C22.6109 24.9969 23.4357 24.6534 24.0445 24.0446C24.6532 23.4358 24.9967 22.6111 25 21.7501V21.3376L19.2 20.0001L18.8375 20.6876C18.275 21.7751 17.8625 22.5626 16.8125 22.1376C14.7411 21.3962 12.8609 20.2027 11.3084 18.6437C9.75597 17.0848 8.57028 15.1996 7.8375 13.1251C7.3875 12.1501 8.2375 11.7001 9.3125 11.1376L10 10.8001L8.6625 5.00014H8.25Z" fill="#8C8C8C"/>
</g>
<defs>
<clipPath id="clip0_206_193">
<rect width="30" height="30" fill="white"/>
</clipPath>
</defs>
</svg>
