<svg width="25" height="24" viewBox="0 0 25 24" fill="none" xmlns="http://www.w3.org/2000/svg">
<g clip-path="url(#clip0_3691_2072)">
<path d="M12.1001 2C10.1223 2 8.18889 2.58649 6.5444 3.6853C4.89991 4.78412 3.61818 6.3459 2.86131 8.17317C2.10443 10.0004 1.9064 12.0111 2.29225 13.9509C2.6781 15.8907 3.63051 17.6725 5.02903 19.0711C6.42756 20.4696 8.20939 21.422 10.1492 21.8079C12.089 22.1937 14.0997 21.9957 15.9269 21.2388C17.7542 20.4819 19.316 19.2002 20.4148 17.5557C21.5136 15.9112 22.1001 13.9778 22.1001 12C22.1001 10.6868 21.8414 9.38642 21.3389 8.17317C20.8364 6.95991 20.0998 5.85752 19.1712 4.92893C18.2426 4.00035 17.1402 3.26375 15.9269 2.7612C14.7137 2.25866 13.4133 2 12.1001 2ZM12.1001 20C10.5179 20 8.97113 19.5308 7.65554 18.6518C6.33995 17.7727 5.31457 16.5233 4.70907 15.0615C4.10357 13.5997 3.94514 11.9911 4.25382 10.4393C4.5625 8.88743 5.32443 7.46197 6.44325 6.34315C7.56207 5.22433 8.98753 4.4624 10.5394 4.15372C12.0912 3.84504 13.6998 4.00346 15.1616 4.60896C16.6234 5.21447 17.8728 6.23984 18.7519 7.55544C19.6309 8.87103 20.1001 10.4177 20.1001 12C20.1001 14.1217 19.2572 16.1566 17.757 17.6569C16.2567 19.1571 14.2218 20 12.1001 20Z" fill="black"/>
<path d="M14.8 8.38993L11.02 13.3899L9.39004 11.2799C9.22693 11.0704 8.98728 10.9343 8.72379 10.9014C8.4603 10.8686 8.19456 10.9418 7.98504 11.1049C7.77552 11.268 7.63938 11.5077 7.60656 11.7712C7.57374 12.0347 7.64693 12.3004 7.81004 12.5099L10.24 15.6199C10.3342 15.7391 10.4543 15.8353 10.5912 15.9011C10.7281 15.967 10.8781 16.0008 11.03 15.9999C11.1828 15.9996 11.3334 15.9642 11.4703 15.8966C11.6072 15.829 11.7269 15.7309 11.82 15.6099L16.39 9.60993C16.5518 9.39776 16.6227 9.13001 16.5871 8.86558C16.5514 8.60116 16.4122 8.36171 16.2 8.19993C15.9879 8.03815 15.7201 7.96728 15.4557 8.00291C15.1913 8.03854 14.9518 8.17776 14.79 8.38993H14.8Z" fill="black"/>
</g>
<defs>
<clipPath id="clip0_3691_2072">
<rect width="24" height="24" fill="white" transform="translate(0.100098)"/>
</clipPath>
</defs>
</svg>
