<svg width="33" height="33" viewBox="0 0 33 33" fill="none" xmlns="http://www.w3.org/2000/svg">
<g clip-path="url(#clip0_205_167)">
<path d="M16.5 15.125C17.5878 15.125 18.6512 14.8024 19.5556 14.1981C20.4601 13.5937 21.1651 12.7348 21.5813 11.7298C21.9976 10.7248 22.1065 9.6189 21.8943 8.55201C21.6821 7.48511 21.1583 6.5051 20.3891 5.73591C19.6199 4.96673 18.6399 4.4429 17.573 4.23068C16.5061 4.01846 15.4002 4.12738 14.3952 4.54367C13.3902 4.95995 12.5313 5.6649 11.9269 6.56937C11.3226 7.47384 11 8.53721 11 9.625C11 11.0837 11.5795 12.4826 12.6109 13.5141C13.6424 14.5455 15.0413 15.125 16.5 15.125ZM16.5 6.875C17.0439 6.875 17.5756 7.03629 18.0278 7.33846C18.4801 7.64064 18.8325 8.07013 19.0407 8.57262C19.2488 9.07512 19.3033 9.62805 19.1972 10.1615C19.0911 10.6949 18.8291 11.185 18.4445 11.5695C18.0599 11.9541 17.5699 12.2161 17.0365 12.3222C16.5031 12.4283 15.9501 12.3738 15.4476 12.1657C14.9451 11.9575 14.5156 11.6051 14.2135 11.1528C13.9113 10.7006 13.75 10.1689 13.75 9.625C13.75 8.89566 14.0397 8.19618 14.5555 7.68046C15.0712 7.16473 15.7707 6.875 16.5 6.875ZM16.5 17.875C13.9473 17.875 11.4991 18.8891 9.6941 20.6941C7.88906 22.4991 6.875 24.9473 6.875 27.5C6.875 27.8647 7.01987 28.2144 7.27773 28.4723C7.53559 28.7301 7.88533 28.875 8.25 28.875C8.61467 28.875 8.96441 28.7301 9.22227 28.4723C9.48013 28.2144 9.625 27.8647 9.625 27.5C9.625 25.6766 10.3493 23.928 11.6386 22.6386C12.928 21.3493 14.6766 20.625 16.5 20.625C18.3234 20.625 20.072 21.3493 21.3614 22.6386C22.6507 23.928 23.375 25.6766 23.375 27.5C23.375 27.8647 23.5199 28.2144 23.7777 28.4723C24.0356 28.7301 24.3853 28.875 24.75 28.875C25.1147 28.875 25.4644 28.7301 25.7223 28.4723C25.9801 28.2144 26.125 27.8647 26.125 27.5C26.125 24.9473 25.1109 22.4991 23.3059 20.6941C21.5009 18.8891 19.0527 17.875 16.5 17.875Z" fill="#8C8C8C"/>
</g>
<defs>
<clipPath id="clip0_205_167">
<rect width="33" height="33" fill="white"/>
</clipPath>
</defs>
</svg>
