<svg width="49" height="49" viewBox="0 0 49 49" fill="none" xmlns="http://www.w3.org/2000/svg">
<g clip-path="url(#clip0_206_304)">
<path d="M42.2829 39.3838L35.3412 32.4625C37.5809 29.6092 38.7962 26.0857 38.7917 22.4583C38.7917 19.2279 37.8337 16.07 36.039 13.384C34.2443 10.698 31.6934 8.60454 28.7088 7.36831C25.7243 6.13208 22.4402 5.80862 19.2719 6.43885C16.1035 7.06907 13.1932 8.62467 10.9089 10.9089C8.62466 13.1932 7.06907 16.1035 6.43884 19.2719C5.80861 22.4402 6.13207 25.7243 7.3683 28.7088C8.60453 31.6934 10.698 34.2443 13.384 36.039C16.07 37.8337 19.2279 38.7917 22.4583 38.7917C26.0857 38.7962 29.6092 37.5809 32.4625 35.3413L39.3838 42.2829C39.5735 42.4743 39.7994 42.6262 40.0482 42.7298C40.2969 42.8335 40.5638 42.8868 40.8333 42.8868C41.1029 42.8868 41.3697 42.8335 41.6185 42.7298C41.8673 42.6262 42.0931 42.4743 42.2829 42.2829C42.4743 42.0931 42.6262 41.8673 42.7298 41.6185C42.8335 41.3697 42.8868 41.1029 42.8868 40.8333C42.8868 40.5638 42.8335 40.297 42.7298 40.0482C42.6262 39.7994 42.4743 39.5736 42.2829 39.3838ZM10.2083 22.4583C10.2083 20.0355 10.9268 17.6671 12.2728 15.6526C13.6189 13.6381 15.5321 12.068 17.7705 11.1408C20.0089 10.2136 22.4719 9.97105 24.8482 10.4437C27.2245 10.9164 29.4072 12.0831 31.1204 13.7963C32.8336 15.5095 34.0003 17.6922 34.473 20.0685C34.9456 22.4448 34.703 24.9078 33.7759 27.1462C32.8487 29.3846 31.2786 31.2978 29.2641 32.6438C27.2496 33.9899 24.8812 34.7083 22.4583 34.7083C19.2094 34.7083 16.0936 33.4177 13.7963 31.1204C11.499 28.8231 10.2083 25.7072 10.2083 22.4583Z" fill="white"/>
</g>
<defs>
<clipPath id="clip0_206_304">
<rect width="49" height="49" fill="white"/>
</clipPath>
</defs>
</svg>
